<svg width="16" height="16" viewBox="0 0 16 16" fill="none" xmlns="http://www.w3.org/2000/svg">
<mask id="mask0_784_32868" style="mask-type:alpha" maskUnits="userSpaceOnUse" x="0" y="0" width="16" height="16">
<rect width="16" height="16" fill="#D9D9D9"/>
</mask>
<g mask="url(#mask0_784_32868)">
<path d="M7.99967 11C8.83301 11 9.54134 10.7083 10.1247 10.125C10.708 9.54168 10.9997 8.83334 10.9997 8.00001C10.9997 7.16668 10.708 6.45834 10.1247 5.87501C9.54134 5.29168 8.83301 5.00001 7.99967 5.00001C7.16634 5.00001 6.45801 5.29168 5.87467 5.87501C5.29134 6.45834 4.99967 7.16668 4.99967 8.00001C4.99967 8.83334 5.29134 9.54168 5.87467 10.125C6.45801 10.7083 7.16634 11 7.99967 11ZM7.99967 8.66668C7.81079 8.66668 7.65245 8.60279 7.52467 8.47501C7.3969 8.34723 7.33301 8.1889 7.33301 8.00001C7.33301 7.81112 7.3969 7.65279 7.52467 7.52501C7.65245 7.39723 7.81079 7.33334 7.99967 7.33334C8.18856 7.33334 8.3469 7.39723 8.47467 7.52501C8.60245 7.65279 8.66634 7.81112 8.66634 8.00001C8.66634 8.1889 8.60245 8.34723 8.47467 8.47501C8.3469 8.60279 8.18856 8.66668 7.99967 8.66668ZM7.99967 14.6667C7.07745 14.6667 6.21079 14.4917 5.39967 14.1417C4.58856 13.7917 3.88301 13.3167 3.28301 12.7167C2.68301 12.1167 2.20801 11.4111 1.85801 10.6C1.50801 9.7889 1.33301 8.92223 1.33301 8.00001C1.33301 7.07779 1.50801 6.21112 1.85801 5.40001C2.20801 4.5889 2.68301 3.88334 3.28301 3.28334C3.88301 2.68334 4.58856 2.20834 5.39967 1.85834C6.21079 1.50834 7.07745 1.33334 7.99967 1.33334C8.9219 1.33334 9.78856 1.50834 10.5997 1.85834C11.4108 2.20834 12.1163 2.68334 12.7163 3.28334C13.3163 3.88334 13.7913 4.5889 14.1413 5.40001C14.4913 6.21112 14.6663 7.07779 14.6663 8.00001C14.6663 8.92223 14.4913 9.7889 14.1413 10.6C13.7913 11.4111 13.3163 12.1167 12.7163 12.7167C12.1163 13.3167 11.4108 13.7917 10.5997 14.1417C9.78856 14.4917 8.9219 14.6667 7.99967 14.6667ZM7.99967 13.3333C9.48856 13.3333 10.7497 12.8167 11.783 11.7833C12.8163 10.75 13.333 9.4889 13.333 8.00001C13.333 6.51112 12.8163 5.25001 11.783 4.21668C10.7497 3.18334 9.48856 2.66668 7.99967 2.66668C6.51079 2.66668 5.24967 3.18334 4.21634 4.21668C3.18301 5.25001 2.66634 6.51112 2.66634 8.00001C2.66634 9.4889 3.18301 10.75 4.21634 11.7833C5.24967 12.8167 6.51079 13.3333 7.99967 13.3333Z" fill="#2D2F31"/>
</g>
</svg>
