<svg width="16" height="16" viewBox="0 0 16 16" fill="none" xmlns="http://www.w3.org/2000/svg">
<path d="M5.33301 10.6667C5.69967 10.6667 6.01356 10.5361 6.27467 10.275C6.53579 10.0139 6.66634 9.70001 6.66634 9.33334C6.66634 8.96668 6.53579 8.65279 6.27467 8.39168C6.01356 8.13057 5.69967 8.00001 5.33301 8.00001C4.96634 8.00001 4.65245 8.13057 4.39134 8.39168C4.13023 8.65279 3.99967 8.96668 3.99967 9.33334C3.99967 9.70001 4.13023 10.0139 4.39134 10.275C4.65245 10.5361 4.96634 10.6667 5.33301 10.6667ZM10.6663 10.6667C11.033 10.6667 11.3469 10.5361 11.608 10.275C11.8691 10.0139 11.9997 9.70001 11.9997 9.33334C11.9997 8.96668 11.8691 8.65279 11.608 8.39168C11.3469 8.13057 11.033 8.00001 10.6663 8.00001C10.2997 8.00001 9.98579 8.13057 9.72467 8.39168C9.46356 8.65279 9.33301 8.96668 9.33301 9.33334C9.33301 9.70001 9.46356 10.0139 9.72467 10.275C9.98579 10.5361 10.2997 10.6667 10.6663 10.6667ZM7.99967 6.66668C8.36634 6.66668 8.68023 6.53612 8.94134 6.27501C9.20245 6.0139 9.33301 5.70001 9.33301 5.33334C9.33301 4.96668 9.20245 4.65279 8.94134 4.39168C8.68023 4.13057 8.36634 4.00001 7.99967 4.00001C7.63301 4.00001 7.31912 4.13057 7.05801 4.39168C6.7969 4.65279 6.66634 4.96668 6.66634 5.33334C6.66634 5.70001 6.7969 6.0139 7.05801 6.27501C7.31912 6.53612 7.63301 6.66668 7.99967 6.66668ZM7.99967 14.6667C7.07745 14.6667 6.21079 14.4917 5.39967 14.1417C4.58856 13.7917 3.88301 13.3167 3.28301 12.7167C2.68301 12.1167 2.20801 11.4111 1.85801 10.6C1.50801 9.7889 1.33301 8.92223 1.33301 8.00001C1.33301 7.07779 1.50801 6.21112 1.85801 5.40001C2.20801 4.5889 2.68301 3.88334 3.28301 3.28334C3.88301 2.68334 4.58856 2.20834 5.39967 1.85834C6.21079 1.50834 7.07745 1.33334 7.99967 1.33334C8.9219 1.33334 9.78856 1.50834 10.5997 1.85834C11.4108 2.20834 12.1163 2.68334 12.7163 3.28334C13.3163 3.88334 13.7913 4.5889 14.1413 5.40001C14.4913 6.21112 14.6663 7.07779 14.6663 8.00001C14.6663 8.92223 14.4913 9.7889 14.1413 10.6C13.7913 11.4111 13.3163 12.1167 12.7163 12.7167C12.1163 13.3167 11.4108 13.7917 10.5997 14.1417C9.78856 14.4917 8.9219 14.6667 7.99967 14.6667ZM7.99967 13.3333C9.48856 13.3333 10.7497 12.8167 11.783 11.7833C12.8163 10.75 13.333 9.4889 13.333 8.00001C13.333 6.51112 12.8163 5.25001 11.783 4.21668C10.7497 3.18334 9.48856 2.66668 7.99967 2.66668C6.51079 2.66668 5.24967 3.18334 4.21634 4.21668C3.18301 5.25001 2.66634 6.51112 2.66634 8.00001C2.66634 9.4889 3.18301 10.75 4.21634 11.7833C5.24967 12.8167 6.51079 13.3333 7.99967 13.3333Z" fill="#2D2F31"/>
</svg>
