<svg width="16" height="16" viewBox="0 0 16 16" fill="none" xmlns="http://www.w3.org/2000/svg">
<mask id="mask0_784_32837" style="mask-type:alpha" maskUnits="userSpaceOnUse" x="0" y="0" width="16" height="16">
<rect width="16" height="16" fill="#D9D9D9"/>
</mask>
<g mask="url(#mask0_784_32837)">
<path d="M5 12C5.27778 12 5.51389 11.9028 5.70833 11.7083C5.90278 11.5139 6 11.2778 6 11C6 10.7222 5.90278 10.4861 5.70833 10.2917C5.51389 10.0972 5.27778 10 5 10C4.72222 10 4.48611 10.0972 4.29167 10.2917C4.09722 10.4861 4 10.7222 4 11C4 11.2778 4.09722 11.5139 4.29167 11.7083C4.48611 11.9028 4.72222 12 5 12ZM5 6C5.27778 6 5.51389 5.90278 5.70833 5.70833C5.90278 5.51389 6 5.27778 6 5C6 4.72222 5.90278 4.48611 5.70833 4.29167C5.51389 4.09722 5.27778 4 5 4C4.72222 4 4.48611 4.09722 4.29167 4.29167C4.09722 4.48611 4 4.72222 4 5C4 5.27778 4.09722 5.51389 4.29167 5.70833C4.48611 5.90278 4.72222 6 5 6ZM8 9C8.27778 9 8.51389 8.90278 8.70833 8.70833C8.90278 8.51389 9 8.27778 9 8C9 7.72222 8.90278 7.48611 8.70833 7.29167C8.51389 7.09722 8.27778 7 8 7C7.72222 7 7.48611 7.09722 7.29167 7.29167C7.09722 7.48611 7 7.72222 7 8C7 8.27778 7.09722 8.51389 7.29167 8.70833C7.48611 8.90278 7.72222 9 8 9ZM11 12C11.2778 12 11.5139 11.9028 11.7083 11.7083C11.9028 11.5139 12 11.2778 12 11C12 10.7222 11.9028 10.4861 11.7083 10.2917C11.5139 10.0972 11.2778 10 11 10C10.7222 10 10.4861 10.0972 10.2917 10.2917C10.0972 10.4861 10 10.7222 10 11C10 11.2778 10.0972 11.5139 10.2917 11.7083C10.4861 11.9028 10.7222 12 11 12ZM11 6C11.2778 6 11.5139 5.90278 11.7083 5.70833C11.9028 5.51389 12 5.27778 12 5C12 4.72222 11.9028 4.48611 11.7083 4.29167C11.5139 4.09722 11.2778 4 11 4C10.7222 4 10.4861 4.09722 10.2917 4.29167C10.0972 4.48611 10 4.72222 10 5C10 5.27778 10.0972 5.51389 10.2917 5.70833C10.4861 5.90278 10.7222 6 11 6ZM3.33333 14C2.96667 14 2.65278 13.8694 2.39167 13.6083C2.13056 13.3472 2 13.0333 2 12.6667V3.33333C2 2.96667 2.13056 2.65278 2.39167 2.39167C2.65278 2.13056 2.96667 2 3.33333 2H12.6667C13.0333 2 13.3472 2.13056 13.6083 2.39167C13.8694 2.65278 14 2.96667 14 3.33333V12.6667C14 13.0333 13.8694 13.3472 13.6083 13.6083C13.3472 13.8694 13.0333 14 12.6667 14H3.33333ZM3.33333 12.6667H12.6667V3.33333H3.33333V12.6667Z" fill="#2D2F31"/>
</g>
</svg>
