<svg width="16" height="16" viewBox="0 0 16 16" fill="none" xmlns="http://www.w3.org/2000/svg">
<path d="M4.00033 14.6667C3.63366 14.6667 3.31977 14.5361 3.05866 14.275C2.79755 14.0139 2.66699 13.7 2.66699 13.3333V2.66668C2.66699 2.30001 2.79755 1.98612 3.05866 1.72501C3.31977 1.4639 3.63366 1.33334 4.00033 1.33334H12.0003C12.367 1.33334 12.6809 1.4639 12.942 1.72501C13.2031 1.98612 13.3337 2.30001 13.3337 2.66668V13.3333C13.3337 13.7 13.2031 14.0139 12.942 14.275C12.6809 14.5361 12.367 14.6667 12.0003 14.6667H4.00033ZM4.00033 13.3333H12.0003V2.66668H10.667V7.33334L9.00033 6.33334L7.33366 7.33334V2.66668H4.00033V13.3333Z" fill="black"/>
</svg>
