<svg width="16" height="16" viewBox="0 0 16 16" fill="none" xmlns="http://www.w3.org/2000/svg">
<mask id="mask0_784_32904" style="mask-type:alpha" maskUnits="userSpaceOnUse" x="0" y="0" width="16" height="16">
<rect width="16" height="16" fill="#D9D9D9"/>
</mask>
<g mask="url(#mask0_784_32904)">
<path d="M6.86634 13.2C7.36634 12.1889 8.03301 11.5139 8.86634 11.175C9.69967 10.8361 10.4108 10.6667 10.9997 10.6667C11.2552 10.6667 11.5052 10.6889 11.7497 10.7333C11.9941 10.7778 12.233 10.8333 12.4663 10.9C12.733 10.4778 12.9441 10.0222 13.0997 9.53334C13.2552 9.04445 13.333 8.53334 13.333 8.00001C13.333 6.51112 12.8163 5.25001 11.783 4.21668C10.7497 3.18334 9.48856 2.66668 7.99967 2.66668C6.51079 2.66668 5.24967 3.18334 4.21634 4.21668C3.18301 5.25001 2.66634 6.51112 2.66634 8.00001C2.66634 8.50001 2.73023 8.97779 2.85801 9.43334C2.98579 9.8889 3.17745 10.3111 3.43301 10.7C3.88856 10.4778 4.36079 10.3056 4.84967 10.1833C5.33856 10.0611 5.83301 10 6.33301 10C6.68856 10 7.03023 10.0306 7.35801 10.0917C7.68579 10.1528 8.01079 10.2333 8.33301 10.3333C8.07745 10.4667 7.83579 10.6222 7.60801 10.8C7.38023 10.9778 7.16634 11.1667 6.96634 11.3667C6.83301 11.3445 6.71912 11.3333 6.62467 11.3333H6.33301C5.97745 11.3333 5.62467 11.3722 5.27467 11.45C4.92467 11.5278 4.58856 11.6445 4.26634 11.8C4.6219 12.1556 5.01912 12.4528 5.45801 12.6917C5.8969 12.9306 6.36634 13.1 6.86634 13.2ZM7.99967 14.6667C7.07745 14.6667 6.21079 14.4917 5.39967 14.1417C4.58856 13.7917 3.88301 13.3167 3.28301 12.7167C2.68301 12.1167 2.20801 11.4111 1.85801 10.6C1.50801 9.7889 1.33301 8.92223 1.33301 8.00001C1.33301 7.07779 1.50801 6.21112 1.85801 5.40001C2.20801 4.5889 2.68301 3.88334 3.28301 3.28334C3.88301 2.68334 4.58856 2.20834 5.39967 1.85834C6.21079 1.50834 7.07745 1.33334 7.99967 1.33334C8.9219 1.33334 9.78856 1.50834 10.5997 1.85834C11.4108 2.20834 12.1163 2.68334 12.7163 3.28334C13.3163 3.88334 13.7913 4.5889 14.1413 5.40001C14.4913 6.21112 14.6663 7.07779 14.6663 8.00001C14.6663 8.92223 14.4913 9.7889 14.1413 10.6C13.7913 11.4111 13.3163 12.1167 12.7163 12.7167C12.1163 13.3167 11.4108 13.7917 10.5997 14.1417C9.78856 14.4917 8.9219 14.6667 7.99967 14.6667ZM6.33301 9.00001C5.68856 9.00001 5.13856 8.77223 4.68301 8.31668C4.22745 7.86112 3.99967 7.31112 3.99967 6.66668C3.99967 6.02223 4.22745 5.47223 4.68301 5.01668C5.13856 4.56112 5.68856 4.33334 6.33301 4.33334C6.97745 4.33334 7.52745 4.56112 7.98301 5.01668C8.43856 5.47223 8.66634 6.02223 8.66634 6.66668C8.66634 7.31112 8.43856 7.86112 7.98301 8.31668C7.52745 8.77223 6.97745 9.00001 6.33301 9.00001ZM6.33301 7.66668C6.61079 7.66668 6.8469 7.56945 7.04134 7.37501C7.23579 7.18057 7.33301 6.94445 7.33301 6.66668C7.33301 6.3889 7.23579 6.15279 7.04134 5.95834C6.8469 5.7639 6.61079 5.66668 6.33301 5.66668C6.05523 5.66668 5.81912 5.7639 5.62467 5.95834C5.43023 6.15279 5.33301 6.3889 5.33301 6.66668C5.33301 6.94445 5.43023 7.18057 5.62467 7.37501C5.81912 7.56945 6.05523 7.66668 6.33301 7.66668ZM10.9997 9.66668C10.533 9.66668 10.1386 9.50557 9.81634 9.18334C9.49412 8.86112 9.33301 8.46668 9.33301 8.00001C9.33301 7.53334 9.49412 7.1389 9.81634 6.81668C10.1386 6.49445 10.533 6.33334 10.9997 6.33334C11.4663 6.33334 11.8608 6.49445 12.183 6.81668C12.5052 7.1389 12.6663 7.53334 12.6663 8.00001C12.6663 8.46668 12.5052 8.86112 12.183 9.18334C11.8608 9.50557 11.4663 9.66668 10.9997 9.66668Z" fill="#2D2F31"/>
</g>
</svg>
