<svg width="16" height="16" viewBox="0 0 16 16" fill="none" xmlns="http://www.w3.org/2000/svg">
<mask id="mask0_784_32950" style="mask-type:alpha" maskUnits="userSpaceOnUse" x="0" y="0" width="16" height="16">
<rect width="16" height="16" fill="#D9D9D9"/>
</mask>
<g mask="url(#mask0_784_32950)">
<path d="M6.66634 11.3333H12.6663V7.33332H6.66634V11.3333ZM2.66634 13.3333C2.29967 13.3333 1.98579 13.2028 1.72467 12.9417C1.46356 12.6805 1.33301 12.3667 1.33301 12V3.99999C1.33301 3.63332 1.46356 3.31943 1.72467 3.05832C1.98579 2.79721 2.29967 2.66666 2.66634 2.66666H13.333C13.6997 2.66666 14.0136 2.79721 14.2747 3.05832C14.5358 3.31943 14.6663 3.63332 14.6663 3.99999V12C14.6663 12.3667 14.5358 12.6805 14.2747 12.9417C14.0136 13.2028 13.6997 13.3333 13.333 13.3333H2.66634ZM2.66634 12H13.333V3.99999H2.66634V12Z" fill="#2D2F31"/>
</g>
</svg>
