<svg width="16" height="16" viewBox="0 0 16 16" fill="none" xmlns="http://www.w3.org/2000/svg">
<mask id="mask0_784_32832" style="mask-type:alpha" maskUnits="userSpaceOnUse" x="0" y="0" width="16" height="16">
<rect width="16" height="16" fill="#D9D9D9"/>
</mask>
<g mask="url(#mask0_784_32832)">
<path d="M3.33333 14C2.96667 14 2.65278 13.8694 2.39167 13.6083C2.13056 13.3472 2 13.0333 2 12.6667V3.33332C2 2.96666 2.13056 2.65277 2.39167 2.39166C2.65278 2.13055 2.96667 1.99999 3.33333 1.99999H6.13333C6.27778 1.59999 6.51944 1.27777 6.85833 1.03332C7.19722 0.788879 7.57778 0.666656 8 0.666656C8.42222 0.666656 8.80278 0.788879 9.14167 1.03332C9.48056 1.27777 9.72222 1.59999 9.86667 1.99999H12.6667C13.0333 1.99999 13.3472 2.13055 13.6083 2.39166C13.8694 2.65277 14 2.96666 14 3.33332V12.6667C14 13.0333 13.8694 13.3472 13.6083 13.6083C13.3472 13.8694 13.0333 14 12.6667 14H3.33333ZM3.33333 12.6667H12.6667V3.33332H3.33333V12.6667ZM4.66667 11.3333H9.33333V9.99999H4.66667V11.3333ZM4.66667 8.66666H11.3333V7.33332H4.66667V8.66666ZM4.66667 5.99999H11.3333V4.66666H4.66667V5.99999ZM8 2.83332C8.14444 2.83332 8.26389 2.7861 8.35833 2.69166C8.45278 2.59721 8.5 2.47777 8.5 2.33332C8.5 2.18888 8.45278 2.06943 8.35833 1.97499C8.26389 1.88055 8.14444 1.83332 8 1.83332C7.85556 1.83332 7.73611 1.88055 7.64167 1.97499C7.54722 2.06943 7.5 2.18888 7.5 2.33332C7.5 2.47777 7.54722 2.59721 7.64167 2.69166C7.73611 2.7861 7.85556 2.83332 8 2.83332Z" fill="#2D2F31"/>
</g>
</svg>
