<svg width="16" height="16" viewBox="0 0 16 16" fill="none" xmlns="http://www.w3.org/2000/svg">
<mask id="mask0_784_32940" style="mask-type:alpha" maskUnits="userSpaceOnUse" x="0" y="0" width="16" height="16">
<rect width="16" height="16" fill="#D9D9D9"/>
</mask>
<g mask="url(#mask0_784_32940)">
<path d="M14 8.00001L11.1 12.1C10.9778 12.2778 10.8194 12.4167 10.625 12.5167C10.4306 12.6167 10.2222 12.6667 10 12.6667H3.33333C2.96667 12.6667 2.65278 12.5361 2.39167 12.275C2.13056 12.0139 2 11.7 2 11.3333V4.66668C2 4.30001 2.13056 3.98612 2.39167 3.72501C2.65278 3.4639 2.96667 3.33334 3.33333 3.33334H10C10.2222 3.33334 10.4306 3.38334 10.625 3.48334C10.8194 3.58334 10.9778 3.72223 11.1 3.90001L14 8.00001ZM12.3667 8.00001L10 4.66668H3.33333V11.3333H10L12.3667 8.00001Z" fill="#2D2F31"/>
</g>
</svg>
