<svg width="16" height="16" viewBox="0 0 16 16" fill="none" xmlns="http://www.w3.org/2000/svg">
<mask id="mask0_784_32960" style="mask-type:alpha" maskUnits="userSpaceOnUse" x="0" y="0" width="16" height="16">
<rect width="16" height="16" fill="#D9D9D9"/>
</mask>
<g mask="url(#mask0_784_32960)">
<path d="M2 14.6667V1.33334L3 2.33334L4 1.33334L5 2.33334L6 1.33334L7 2.33334L8 1.33334L9 2.33334L10 1.33334L11 2.33334L12 1.33334L13 2.33334L14 1.33334V14.6667L13 13.6667L12 14.6667L11 13.6667L10 14.6667L9 13.6667L8 14.6667L7 13.6667L6 14.6667L5 13.6667L4 14.6667L3 13.6667L2 14.6667ZM4 11.3333H12V10H4V11.3333ZM4 8.66668H12V7.33334H4V8.66668ZM4 6.00001H12V4.66668H4V6.00001ZM3.33333 12.7333H12.6667V3.26668H3.33333V12.7333Z" fill="#2D2F31"/>
</g>
</svg>
