<svg width="16" height="16" viewBox="0 0 16 16" fill="none" xmlns="http://www.w3.org/2000/svg">
<path d="M0.666992 13.3333V11.4667C0.666992 11.0889 0.764214 10.7417 0.958659 10.425C1.1531 10.1083 1.41144 9.86666 1.73366 9.69999C2.42255 9.35555 3.12255 9.09721 3.83366 8.92499C4.54477 8.75277 5.26699 8.66666 6.00033 8.66666C6.73366 8.66666 7.45588 8.75277 8.16699 8.92499C8.8781 9.09721 9.5781 9.35555 10.267 9.69999C10.5892 9.86666 10.8475 10.1083 11.042 10.425C11.2364 10.7417 11.3337 11.0889 11.3337 11.4667V13.3333H0.666992ZM12.667 13.3333V11.3333C12.667 10.8444 12.5309 10.375 12.2587 9.92499C11.9864 9.47499 11.6003 9.08888 11.1003 8.76666C11.667 8.83332 12.2003 8.94721 12.7003 9.10832C13.2003 9.26943 13.667 9.46666 14.1003 9.69999C14.5003 9.92221 14.8059 10.1694 15.017 10.4417C15.2281 10.7139 15.3337 11.0111 15.3337 11.3333V13.3333H12.667ZM6.00033 7.99999C5.26699 7.99999 4.63921 7.73888 4.11699 7.21666C3.59477 6.69443 3.33366 6.06666 3.33366 5.33332C3.33366 4.59999 3.59477 3.97221 4.11699 3.44999C4.63921 2.92777 5.26699 2.66666 6.00033 2.66666C6.73366 2.66666 7.36144 2.92777 7.88366 3.44999C8.40588 3.97221 8.66699 4.59999 8.66699 5.33332C8.66699 6.06666 8.40588 6.69443 7.88366 7.21666C7.36144 7.73888 6.73366 7.99999 6.00033 7.99999ZM12.667 5.33332C12.667 6.06666 12.4059 6.69443 11.8837 7.21666C11.3614 7.73888 10.7337 7.99999 10.0003 7.99999C9.8781 7.99999 9.72255 7.9861 9.53366 7.95832C9.34477 7.93055 9.18921 7.89999 9.06699 7.86666C9.36699 7.5111 9.59755 7.11666 9.75866 6.68332C9.91977 6.24999 10.0003 5.79999 10.0003 5.33332C10.0003 4.86666 9.91977 4.41666 9.75866 3.98332C9.59755 3.54999 9.36699 3.15555 9.06699 2.79999C9.22255 2.74443 9.3781 2.70832 9.53366 2.69166C9.68921 2.67499 9.84477 2.66666 10.0003 2.66666C10.7337 2.66666 11.3614 2.92777 11.8837 3.44999C12.4059 3.97221 12.667 4.59999 12.667 5.33332ZM2.00033 12H10.0003V11.4667C10.0003 11.3444 9.96977 11.2333 9.90866 11.1333C9.84755 11.0333 9.76699 10.9555 9.66699 10.9C9.06699 10.6 8.46144 10.375 7.85033 10.225C7.23921 10.075 6.62255 9.99999 6.00033 9.99999C5.3781 9.99999 4.76144 10.075 4.15033 10.225C3.53921 10.375 2.93366 10.6 2.33366 10.9C2.23366 10.9555 2.1531 11.0333 2.09199 11.1333C2.03088 11.2333 2.00033 11.3444 2.00033 11.4667V12ZM6.00033 6.66666C6.36699 6.66666 6.68088 6.5361 6.94199 6.27499C7.2031 6.01388 7.33366 5.69999 7.33366 5.33332C7.33366 4.96666 7.2031 4.65277 6.94199 4.39166C6.68088 4.13055 6.36699 3.99999 6.00033 3.99999C5.63366 3.99999 5.31977 4.13055 5.05866 4.39166C4.79755 4.65277 4.66699 4.96666 4.66699 5.33332C4.66699 5.69999 4.79755 6.01388 5.05866 6.27499C5.31977 6.5361 5.63366 6.66666 6.00033 6.66666Z" fill="#2D2F31"/>
</svg>
