<svg width="18" height="18" viewBox="0 0 18 18" fill="none" xmlns="http://www.w3.org/2000/svg">
<g id="Support">
<path id="Vector" d="M9 7.86805e-07C10.245 6.77964e-07 11.415 0.23625 12.51 0.708752C13.605 1.18125 14.5575 1.8225 15.3675 2.6325C16.1775 3.4425 16.8187 4.395 17.2912 5.49C17.7637 6.585 18 7.755 18 9C18 10.245 17.7637 11.415 17.2912 12.51C16.8187 13.605 16.1775 14.5575 15.3675 15.3675C14.5575 16.1775 13.605 16.8188 12.51 17.2913C11.415 17.7638 10.245 18 9 18C7.755 18 6.585 17.7638 5.49 17.2913C4.395 16.8188 3.4425 16.1775 2.6325 15.3675C1.8225 14.5575 1.18125 13.605 0.708751 12.51C0.236249 11.415 -6.77964e-07 10.245 -7.86805e-07 9C-8.95646e-07 7.755 0.236249 6.585 0.708751 5.49C1.18125 4.395 1.8225 3.4425 2.6325 2.6325C3.4425 1.8225 4.395 1.18125 5.49 0.708753C6.585 0.236251 7.755 8.95646e-07 9 7.86805e-07ZM11.7225 1.8L10.305 5.175C10.875 5.37 11.3812 5.68125 11.8237 6.10875C12.2662 6.53625 12.6 7.0575 12.825 7.6725L16.2 6.3225C15.735 5.2575 15.12 4.335 14.355 3.555C13.59 2.775 12.7125 2.19 11.7225 1.8ZM12.8475 10.305C12.6075 10.92 12.27 11.445 11.835 11.88C11.4 12.315 10.8975 12.63 10.3275 12.825L11.6775 16.2C12.8025 15.735 13.755 15.1088 14.535 14.3213C15.315 13.5338 15.87 12.645 16.2 11.655L12.8475 10.305ZM9 6.3C8.25 6.3 7.6125 6.5625 7.0875 7.0875C6.5625 7.6125 6.3 8.25 6.3 9C6.3 9.75 6.5625 10.3875 7.0875 10.9125C7.6125 11.4375 8.25 11.7 9 11.7C9.75 11.7 10.3875 11.4375 10.9125 10.9125C11.4375 10.3875 11.7 9.75 11.7 9C11.7 8.25 11.4375 7.6125 10.9125 7.0875C10.3875 6.5625 9.75 6.3 9 6.3ZM6.2775 1.8C5.2425 2.22 4.3425 2.81625 3.5775 3.58875C2.8125 4.36125 2.22 5.2575 1.8 6.2775L5.175 7.6725C5.4 7.0425 5.73375 6.51375 6.17625 6.08625C6.61875 5.65875 7.125 5.355 7.695 5.175L6.2775 1.8ZM5.175 10.3275L1.8 11.7225C2.22 12.7425 2.81625 13.6388 3.58875 14.4113C4.36125 15.1838 5.2575 15.78 6.2775 16.2L7.65 12.825C7.08 12.63 6.585 12.3188 6.165 11.8913C5.745 11.4638 5.415 10.9425 5.175 10.3275Z" fill="#2D2F31"/>
</g>
</svg>
