<svg width="18" height="18" viewBox="0 0 18 18" fill="none" xmlns="http://www.w3.org/2000/svg">
<g id="Vector">
<path id="Vector_2" d="M16.1437 1.62279e-07C16.6687 1.16382e-07 17.1094 0.178125 17.4656 0.534376C17.8219 0.890625 18 1.33125 18 1.85625C18 2.38125 17.8219 2.82188 17.4656 3.17813C17.1094 3.53438 16.6687 3.7125 16.1437 3.7125C15.6187 3.7125 15.1781 3.53438 14.8219 3.17813C14.4656 2.82188 14.2875 2.38125 14.2875 1.85625C14.2875 1.33125 14.4656 0.890625 14.8219 0.534376C15.1781 0.178126 15.6187 2.08175e-07 16.1437 1.62279e-07ZM9 7.86805e-07C9.525 7.40908e-07 9.96562 0.178126 10.3219 0.534377C10.6781 0.890626 10.8562 1.33125 10.8562 1.85625C10.8562 2.38125 10.6781 2.82188 10.3219 3.17813C9.96562 3.53438 9.525 3.7125 9 3.7125C8.475 3.7125 8.03437 3.53438 7.67812 3.17813C7.32187 2.82188 7.14375 2.38125 7.14375 1.85625C7.14375 1.33125 7.32187 0.890626 7.67812 0.534377C8.03437 0.178126 8.475 8.32702e-07 9 7.86805e-07ZM1.85625 1.41133e-06C2.38125 1.36543e-06 2.82187 0.178127 3.17812 0.534377C3.53437 0.890626 3.7125 1.33125 3.7125 1.85625C3.7125 2.38125 3.53437 2.82188 3.17812 3.17813C2.82187 3.53438 2.38125 3.7125 1.85625 3.7125C1.33125 3.7125 0.890624 3.53438 0.534375 3.17813C0.178124 2.82188 -1.36543e-06 2.38125 -1.41133e-06 1.85625C-1.45723e-06 1.33125 0.178124 0.890627 0.534375 0.534378C0.890623 0.178127 1.33125 1.45723e-06 1.85625 1.41133e-06ZM16.1437 7.14375C16.6687 7.14375 17.1094 7.32188 17.4656 7.67813C17.8219 8.03438 18 8.475 18 9C18 9.525 17.8219 9.96562 17.4656 10.3219C17.1094 10.6781 16.6687 10.8563 16.1437 10.8563C15.6187 10.8563 15.1781 10.6781 14.8219 10.3219C14.4656 9.96563 14.2875 9.525 14.2875 9C14.2875 8.475 14.4656 8.03438 14.8219 7.67813C15.1781 7.32188 15.6187 7.14375 16.1437 7.14375ZM9 7.14375C9.525 7.14375 9.96562 7.32188 10.3219 7.67813C10.6781 8.03438 10.8562 8.475 10.8562 9C10.8562 9.525 10.6781 9.96563 10.3219 10.3219C9.96562 10.6781 9.525 10.8563 9 10.8563C8.475 10.8563 8.03437 10.6781 7.67812 10.3219C7.32187 9.96563 7.14375 9.525 7.14375 9C7.14375 8.475 7.32187 8.03438 7.67812 7.67813C8.03437 7.32188 8.475 7.14375 9 7.14375ZM1.85625 7.14375C2.38125 7.14375 2.82187 7.32188 3.17812 7.67813C3.53437 8.03438 3.7125 8.475 3.7125 9C3.7125 9.525 3.53437 9.96563 3.17812 10.3219C2.82187 10.6781 2.38125 10.8563 1.85625 10.8563C1.33125 10.8563 0.890624 10.6781 0.534375 10.3219C0.178125 9.96563 -7.40908e-07 9.525 -7.86805e-07 9C-8.32702e-07 8.475 0.178125 8.03438 0.534375 7.67813C0.890624 7.32188 1.33125 7.14375 1.85625 7.14375ZM16.1437 14.2875C16.6687 14.2875 17.1094 14.4656 17.4656 14.8219C17.8219 15.1781 18 15.6188 18 16.1438C18 16.6688 17.8219 17.1094 17.4656 17.4656C17.1094 17.8219 16.6688 18 16.1438 18C15.6188 18 15.1781 17.8219 14.8219 17.4656C14.4656 17.1094 14.2875 16.6688 14.2875 16.1438C14.2875 15.6188 14.4656 15.1781 14.8219 14.8219C15.1781 14.4656 15.6187 14.2875 16.1437 14.2875ZM9 14.2875C9.525 14.2875 9.96562 14.4656 10.3219 14.8219C10.6781 15.1781 10.8563 15.6188 10.8563 16.1438C10.8563 16.6688 10.6781 17.1094 10.3219 17.4656C9.96562 17.8219 9.525 18 9 18C8.475 18 8.03438 17.8219 7.67813 17.4656C7.32188 17.1094 7.14375 16.6688 7.14375 16.1438C7.14375 15.6188 7.32188 15.1781 7.67813 14.8219C8.03437 14.4656 8.475 14.2875 9 14.2875ZM1.85625 14.2875C2.38125 14.2875 2.82188 14.4656 3.17813 14.8219C3.53437 15.1781 3.7125 15.6188 3.7125 16.1438C3.7125 16.6688 3.53438 17.1094 3.17813 17.4656C2.82188 17.8219 2.38125 18 1.85625 18C1.33125 18 0.890625 17.8219 0.534376 17.4656C0.178125 17.1094 -1.16382e-07 16.6688 -1.62279e-07 16.1438C-2.08175e-07 15.6188 0.178125 15.1781 0.534376 14.8219C0.890625 14.4656 1.33125 14.2875 1.85625 14.2875Z" fill="#2D2F31"/>
</g>
</svg>
